<?xml version="1.0" standalone="no"?>
<!DOCTYPE svg PUBLIC "-//W3C//DTD SVG 20010904//EN"
 "http://www.w3.org/TR/2001/REC-SVG-20010904/DTD/svg10.dtd">
<svg version="1.0" xmlns="http://www.w3.org/2000/svg"
 width="200.000000pt" height="200.000000pt" viewBox="0 0 200.000000 200.000000"
 preserveAspectRatio="xMidYMid meet">
<metadata>
Created by potrace 1.11, written by Peter Selinger 2001-2013
</metadata>
<g transform="translate(0.000000,200.000000) scale(0.100000,-0.100000)"
fill="#000000" stroke="none">
<path d="M250 1300 l0 -550 300 0 300 0 0 -25 0 -25 -100 0 -100 0 0 -50 0
-50 -75 0 -75 0 0 -75 0 -75 -75 0 c-73 0 -75 -1 -75 -25 0 -20 -5 -25 -25
-25 -20 0 -25 -5 -25 -25 0 -20 -5 -25 -25 -25 -20 0 -25 -5 -25 -25 0 -20 -5
-25 -25 -25 -20 0 -25 -5 -25 -25 0 -20 -5 -25 -25 -25 -20 0 -25 -5 -25 -25
0 -20 -5 -25 -25 -25 -23 0 -25 -3 -25 -50 l0 -50 575 0 575 0 0 25 c0 20 5
25 25 25 23 0 25 3 25 50 0 47 2 50 25 50 20 0 25 5 25 25 0 20 5 25 25 25 24
0 25 2 25 75 l0 75 -425 0 -425 0 0 50 0 50 50 0 c47 0 50 -2 50 -25 l0 -25
350 0 350 0 0 25 0 25 125 0 125 0 0 -50 0 -50 -50 0 -50 0 0 -175 0 -175 125
0 125 0 0 175 0 175 -50 0 -50 0 0 75 0 75 -150 0 -150 0 0 50 0 50 -100 0
-100 0 0 25 0 25 275 0 275 0 0 550 0 550 -725 0 -725 0 0 -550z m1400 0 l0
-500 -675 0 -675 0 0 500 0 500 675 0 675 0 0 -500z m-550 -600 l0 -50 100 0
100 0 0 -50 0 -50 -300 0 -300 0 0 50 0 50 100 0 100 0 0 50 0 50 100 0 100 0
0 -50z m250 -325 c0 -20 -5 -25 -25 -25 -23 0 -25 -3 -25 -50 0 -47 -2 -50
-25 -50 -20 0 -25 -5 -25 -25 0 -20 -5 -25 -25 -25 -20 0 -25 -5 -25 -25 l0
-25 -500 0 -500 0 0 25 c0 20 5 25 25 25 20 0 25 5 25 25 0 20 5 25 25 25 20
0 25 5 25 25 0 20 5 25 25 25 20 0 25 5 25 25 0 20 5 25 25 25 20 0 25 5 25
25 l0 25 475 0 475 0 0 -25z m250 -50 c0 -73 1 -75 25 -75 24 0 25 2 25 75 0
73 1 75 25 75 l25 0 0 -125 0 -125 -75 0 -75 0 0 125 0 125 25 0 c24 0 25 -2
25 -75z"/>
<path d="M400 1300 l0 -400 575 0 575 0 0 400 0 400 -575 0 -575 0 0 -400z
m1100 25 l0 -325 -525 0 -525 0 0 325 0 325 525 0 525 0 0 -325z"/>
<path d="M900 1575 c0 -20 -5 -25 -25 -25 -24 0 -25 -2 -25 -75 0 -73 1 -75
25 -75 20 0 25 -5 25 -25 0 -23 -3 -25 -50 -25 l-50 0 0 50 c0 47 -2 50 -25
50 -20 0 -25 5 -25 25 0 20 -5 25 -25 25 -20 0 -25 -5 -25 -25 0 -20 5 -25 25
-25 23 0 25 -3 25 -50 0 -47 2 -50 25 -50 20 0 25 -5 25 -25 0 -23 3 -25 50
-25 47 0 50 -2 50 -25 0 -23 -3 -25 -50 -25 -47 0 -50 -2 -50 -25 0 -20 -5
-25 -25 -25 -23 0 -25 -3 -25 -50 0 -47 2 -50 25 -50 23 0 25 3 25 50 l0 50
50 0 50 0 0 -50 c0 -47 2 -50 25 -50 20 0 25 -5 25 -25 0 -23 3 -25 50 -25 47
0 50 2 50 25 0 20 5 25 25 25 23 0 25 3 25 50 l0 50 50 0 50 0 0 -50 c0 -47 2
-50 25 -50 23 0 25 3 25 50 0 47 -2 50 -25 50 -20 0 -25 5 -25 25 0 23 -3 25
-50 25 -47 0 -50 2 -50 25 0 23 3 25 50 25 47 0 50 2 50 25 0 20 5 25 25 25
23 0 25 3 25 50 0 47 2 50 25 50 20 0 25 5 25 25 0 20 -5 25 -25 25 -20 0 -25
-5 -25 -25 0 -20 -5 -25 -25 -25 -23 0 -25 -3 -25 -50 l0 -50 -50 0 c-47 0
-50 2 -50 25 0 20 5 25 25 25 24 0 25 2 25 75 0 73 -1 75 -25 75 -20 0 -25 5
-25 25 0 20 -5 25 -25 25 -20 0 -25 -5 -25 -25 0 -20 5 -25 25 -25 24 0 25 -2
25 -75 0 -73 -1 -75 -25 -75 -20 0 -25 5 -25 25 0 23 -3 25 -50 25 -47 0 -50
-2 -50 -25 0 -20 -5 -25 -25 -25 -24 0 -25 2 -25 75 0 73 1 75 25 75 20 0 25
5 25 25 0 20 -5 25 -25 25 -20 0 -25 -5 -25 -25z m150 -450 c0 -23 -3 -25 -50
-25 -47 0 -50 2 -50 25 0 23 3 25 50 25 47 0 50 -2 50 -25z"/>
<path d="M450 325 c0 -20 -5 -25 -25 -25 -20 0 -25 -5 -25 -25 0 -20 -5 -25
-25 -25 -20 0 -25 -5 -25 -25 l0 -25 300 0 300 0 0 25 c0 20 5 25 25 25 23 0
25 3 25 50 l0 50 -275 0 -275 0 0 -25z m500 -50 l0 -25 -250 0 -250 0 0 25 0
25 250 0 250 0 0 -25z"/>
<path d="M1100 325 c0 -20 -5 -25 -25 -25 -23 0 -25 -3 -25 -50 l0 -50 50 0
c47 0 50 2 50 25 0 20 5 25 25 25 23 0 25 3 25 50 l0 50 -50 0 c-47 0 -50 -2
-50 -25z m50 -50 c0 -20 -5 -25 -25 -25 -20 0 -25 5 -25 25 0 20 5 25 25 25
20 0 25 -5 25 -25z"/>
</g>
</svg>
